<svg width="33" height="32" viewBox="0 0 33 32" fill="none" xmlns="http://www.w3.org/2000/svg">
<path d="M28.266 16.2764C28.266 15.4607 28.1999 14.6406 28.0588 13.8381H16.74V18.459H23.2217C22.9528 19.9494 22.0885 21.2678 20.823 22.1056V25.1039H24.69C26.9609 23.0139 28.266 19.9273 28.266 16.2764Z" fill="#4285F4"/>
<path d="M16.74 28.0008C19.9764 28.0008 22.7058 26.9382 24.6944 25.1039L20.8274 22.1055C19.7516 22.8375 18.3626 23.252 16.7444 23.252C13.6138 23.252 10.9593 21.1399 10.0069 18.3003H6.01649V21.3912C8.0536 25.4434 12.2028 28.0008 16.74 28.0008Z" fill="#34A853"/>
<path d="M10.0025 18.3003C9.49987 16.8099 9.49987 15.1961 10.0025 13.7058V10.6148H6.0165C4.3145 14.0056 4.31448 18.0005 6.01649 21.3912L10.0025 18.3003Z" fill="#FBBC04"/>
<path d="M16.74 8.74966C18.4508 8.7232 20.1043 9.36697 21.3433 10.5487L24.7694 7.12262C22.6 5.0855 19.7207 3.96553 16.74 4.00081C12.2028 4.00081 8.05361 6.55824 6.0165 10.6148L10.0025 13.7058C10.9505 10.8617 13.6094 8.74966 16.74 8.74966Z" fill="#EA4335"/>
</svg>
